# xmcd
#
# Track frame offsets:
#	150
#	11025
#	20680
#	31377
#	45157
#	63995
#	76620
#	85837
#	96960
#	107925
#	121492
#	136662
#	146657
#	157395
#	175350
#	188390
#	199362
#	208680
#	216285
#	230107
#	239757
#	251875
#	265915
#	278192
#	287592
#
# Disc length: 4046 seconds
#
# Revision: 1
# Processed by: cddbd v1.4PL0 Copyright (c) Steve Scherf et al.
# Submitted via: audiograbber 1.81.02
#
DISCID=770fcc19
DTITLE=Various Artist - Bluegrass Hall of Fame
DYEAR=2002
DGENRE=Bluegrass
TTITLE0=The Osborne Brothers - Hillbilly Fever
TTITLE1=Wynn Osborne - Randy Lynn Rag
TTITLE2=Jim and Jesse - Diesel on my Trail
TTITLE3=Mac Wiseman - I Wonder How the Old Folks are at Home
TTITLE4=Grandpa Jones - Muleskinner Blues
TTITLE5=Jim and Jesse - Paradise
TTITLE6=The Stonemans - Blue Ridge Mountain Blues
TTITLE7=The Osborne Brothers - I Can Hear Kentucky Calling Me
TTITLE8=Smith Bros. Bluegrass Orchestra - Footprints in the Snow
TTITLE9=Grandpa Jones - Tragic Romance
TTITLE10=Benny Martin - Wabash Cannonball
TTITLE11=Don Reno and Bill Harrell - I'm Using My Bible For a Roadmap
TTITLE12=Mac Wiseman and Bobby Osborne - Poison Love
TTITLE13=Jim Silvers - Katy Daly
TTITLE14=The Osborne Brothers - This Heart of Mine Can Never Say Goodbye
TTITLE15=Carl Story - I Saw the Light
TTITLE16=Mac Wiseman - Jimmy Brown, The Newsboy
TTITLE17=Paul Warren - Sally Goodin'
TTITLE18=Jim and Jesse - Great Speckled Bird
TTITLE19=Arthur Smith - Dueling Banjos
TTITLE20=The Osborne Brothers - Rocky Top
TTITLE21=The Nashville Grass with Jonny Cash - Mother Maybelle
TTITLE22=Merle Travis - I Am a Pilgrim
TTITLE23=Josh Graves - False-Hearted Lover
TTITLE24=The Stonemans - Orange Blossom Special
EXTD=
EXTT0=
EXTT1=
EXTT2=
EXTT3=
EXTT4=
EXTT5=
EXTT6=
EXTT7=
EXTT8=
EXTT9=
EXTT10=
EXTT11=
EXTT12=
EXTT13=
EXTT14=
EXTT15=
EXTT16=
EXTT17=
EXTT18=
EXTT19=
EXTT20=
EXTT21=
EXTT22=
EXTT23=
EXTT24=
PLAYORDER=
